<?xml version="1.0" encoding="UTF-8" standalone="no"?>
<svg
   xmlns:dc="http://purl.org/dc/elements/1.1/"
   xmlns:cc="http://creativecommons.org/ns#"
   xmlns:rdf="http://www.w3.org/1999/02/22-rdf-syntax-ns#"
   xmlns:svg="http://www.w3.org/2000/svg"
   xmlns="http://www.w3.org/2000/svg"
   xmlns:sodipodi="http://sodipodi.sourceforge.net/DTD/sodipodi-0.dtd"
   xmlns:inkscape="http://www.inkscape.org/namespaces/inkscape"
   width="584px"
   height="304px"
   version="1.1"
   id="svg2"
   inkscape:version="0.48.4 r9939"
   sodipodi:docname="ActorSystem_4.svg">
  <metadata
     id="metadata128">
    <rdf:RDF>
      <cc:Work
         rdf:about="">
        <dc:format>image/svg+xml</dc:format>
        <dc:type
           rdf:resource="http://purl.org/dc/dcmitype/StillImage" />
      </cc:Work>
    </rdf:RDF>
  </metadata>
  <sodipodi:namedview
     pagecolor="#ffffff"
     bordercolor="#666666"
     borderopacity="1"
     objecttolerance="10"
     gridtolerance="10"
     guidetolerance="10"
     inkscape:pageopacity="0"
     inkscape:pageshadow="2"
     inkscape:window-width="1918"
     inkscape:window-height="1030"
     id="namedview126"
     showgrid="false"
     inkscape:zoom="2.7993679"
     inkscape:cx="203.33977"
     inkscape:cy="152.34424"
     inkscape:window-x="0"
     inkscape:window-y="0"
     inkscape:window-maximized="1"
     inkscape:current-layer="g6" />
  <defs
     id="defs4" />
  <g
     transform="translate(0.5,0.5)"
     id="g6">
    <rect
       x="1"
       y="1"
       width="580"
       height="300"
       fill="none"
       stroke="none"
       pointer-events="none"
       id="rect8" />
    <rect
       x="31"
       y="11"
       width="520"
       height="280"
       rx="42"
       ry="42"
       fill="none"
       stroke="#989292"
       stroke-width="3"
       pointer-events="none"
       id="rect10" />
    <path
       d="M 278 208 L 306 208 L 306 231 L 278 231 Z"
       fill="#ffffff"
       stroke="#de0027"
       stroke-width="3"
       stroke-miterlimit="10"
       pointer-events="none"
       id="path12" />
    <path
       d="M 278 208 L 292 219 L 306 208"
       fill="none"
       stroke="#de0027"
       stroke-width="3"
       stroke-miterlimit="10"
       pointer-events="none"
       id="path14" />
    <path
       d="M 227 221 L 267 221"
       fill="none"
       stroke="#989292"
       stroke-miterlimit="10"
       pointer-events="none"
       id="path20" />
    <ellipse
       cx="194"
       cy="219"
       rx="22.5"
       ry="22.5"
       fill="#ffffff"
       stroke="#de0027"
       stroke-width="3"
       pointer-events="none"
       id="ellipse22"
       d="m 216.5,219 c 0,12.42641 -10.07359,22.5 -22.5,22.5 -12.42641,0 -22.5,-10.07359 -22.5,-22.5 0,-12.42641 10.07359,-22.5 22.5,-22.5 12.42641,0 22.5,10.07359 22.5,22.5 z" />
    <g
       transform="translate(172,212)"
       id="g24">
      <text
         x="22"
         y="12"
         fill="#DE0027"
         text-anchor="middle"
         font-size="12px"
         font-family="Verdana"
         id="text30">Actor</text>
    </g>
      <g
          fill="#DE0027"
          font-family="Verdana"
          text-anchor="middle"
          font-size="12px"
          id="g3173">
          <text
              x="292"
              y="251"
              id="text3175">Message</text>
      </g>
    <path
       d="M 151 215 C 151 209 166 209 166 215 L 166 229 C 166 234 151 234 151 229 Z"
       fill="#ffffff"
       stroke="#de0027"
       stroke-miterlimit="10"
       pointer-events="none"
       id="path28" />
    <path
       d="M 151 215 C 151 219 166 219 166 215"
       fill="none"
       stroke="#de0027"
       stroke-miterlimit="10"
       pointer-events="none"
       id="path30" />
    <path
       d="M 320 221 L 365 221"
       fill="none"
       stroke="#989292"
       stroke-miterlimit="10"
       pointer-events="none"
       id="path36" />
    <path
       d="M 370 221 L 363 224 L 365 221 L 363 217 Z"
       fill="#989292"
       stroke="#989292"
       stroke-miterlimit="10"
       pointer-events="none"
       id="path38" />
    <ellipse
       cx="419"
       cy="218"
       rx="22.5"
       ry="22.5"
       fill="#ffffff"
       stroke="#de0027"
       stroke-width="3"
       pointer-events="none"
       id="ellipse40"
       d="m 441.5,218 c 0,12.42641 -10.07359,22.5 -22.5,22.5 -12.42641,0 -22.5,-10.07359 -22.5,-22.5 0,-12.42641 10.07359,-22.5 22.5,-22.5 12.42641,0 22.5,10.07359 22.5,22.5 z" />
    <ellipse
       cx="231"
       cy="118"
       rx="15"
       ry="15"
       fill="#ffffff"
       stroke="#de0027"
       stroke-width="3"
       pointer-events="none"
       id="ellipse42"
       d="m 246,118 c 0,8.28427 -6.71573,15 -15,15 -8.28427,0 -15,-6.71573 -15,-15 0,-8.28427 6.71573,-15 15,-15 8.28427,0 15,6.71573 15,15 z" />
    <ellipse
       cx="360"
       cy="118"
       rx="15"
       ry="15"
       fill="#ffffff"
       stroke="#de0027"
       stroke-width="3"
       pointer-events="none"
       id="ellipse44"
       d="m 375,118 c 0,8.28427 -6.71573,15 -15,15 -8.28427,0 -15,-6.71573 -15,-15 0,-8.28427 6.71573,-15 15,-15 8.28427,0 15,6.71573 15,15 z" />
      <g
          transform="translate(134,192)"
          id="g36">
          <text
              x="25"
              y="57"
              fill="#DE0027"
              text-anchor="middle"
              font-size="10px"
              font-family="Verdana"
              id="text42">Mailbox</text>
      </g>
    <ellipse
       cx="292"
       cy="53"
       rx="10"
       ry="10"
       fill="#ffffff"
       stroke="#de0027"
       stroke-width="3"
       pointer-events="none"
       id="ellipse46"
       d="m 302,53 c 0,5.522847 -4.47715,10 -10,10 -5.52285,0 -10,-4.477153 -10,-10 0,-5.522847 4.47715,-10 10,-10 5.52285,0 10,4.477153 10,10 z" />
    <path
       d="M 271 71 L 246 96"
       fill="none"
       stroke="#989292"
       stroke-miterlimit="10"
       pointer-events="none"
       id="path48" />
    <path
       d="M 242 100 L 244 92 L 246 96 L 249 97 Z"
       fill="none"
       stroke="#989292"
       stroke-miterlimit="10"
       pointer-events="none"
       id="path50" />
    <path
       d="M 220 141 L 203 185"
       fill="none"
       stroke="#989292"
       stroke-miterlimit="10"
       pointer-events="none"
       id="path52" />
    <path
       d="M 201 190 L 201 182 L 203 185 L 207 184 Z"
       fill="none"
       stroke="#989292"
       stroke-miterlimit="10"
       pointer-events="none"
       id="path54" />
    <path
       d="M 311 71 L 344 97"
       fill="none"
       stroke="#989292"
       stroke-miterlimit="10"
       pointer-events="none"
       id="path56" />
    <path
       d="M 348 100 L 340 98 L 344 97 L 345 93 Z"
       fill="none"
       stroke="#989292"
       stroke-miterlimit="10"
       pointer-events="none"
       id="path58" />
    <path
       d="M 381 141 L 408 185"
       fill="none"
       stroke="#989292"
       stroke-miterlimit="10"
       pointer-events="none"
       id="path60" />
    <path
       d="M 410 190 L 404 186 L 408 185 L 410 182 Z"
       fill="none"
       stroke="#989292"
       stroke-miterlimit="10"
       pointer-events="none"
       id="path62" />
    <rect
       x="61"
       y="21"
       width="80"
       height="20"
       fill="none"
       stroke="none"
       pointer-events="none"
       id="rect64" />
    <rect
       x="427"
       y="130"
       width="16"
       height="14"
       fill="none"
       stroke="none"
       pointer-events="none"
       id="rect74" />
    <rect
       x="427"
       y="130"
       width="16"
       height="14"
       fill="none"
       stroke="none"
       pointer-events="none"
       id="rect76" />
    <path
       d="M 377 215 C 377 209 392 209 392 215 L 392 229 C 392 234 377 234 377 229 Z"
       fill="#ffffff"
       stroke="#de0027"
       stroke-miterlimit="10"
       pointer-events="none"
       id="path88" />
    <path
       d="M 377 215 C 377 219 392 219 392 215"
       fill="none"
       stroke="#de0027"
       stroke-miterlimit="10"
       pointer-events="none"
       id="path90" />
    <rect
       x="336"
       y="161"
       width="18"
       height="14"
       fill="none"
       stroke="none"
       pointer-events="none"
       id="rect96" />
    <rect
       x="336"
       y="161"
       width="18"
       height="14"
       fill="none"
       stroke="none"
       pointer-events="none"
       id="rect98" />
    <rect
       x="336"
       y="161"
       width="18"
       height="14"
       fill="none"
       stroke="none"
       pointer-events="none"
       id="rect100" />
    <rect
       x="315"
       y="161"
       width="16"
       height="14"
       fill="none"
       stroke="none"
       pointer-events="none"
       id="rect112" />
    <rect
       x="315"
       y="161"
       width="16"
       height="14"
       fill="none"
       stroke="none"
       pointer-events="none"
       id="rect114" />
  </g>
<g
    fill="#DE0027"
    font-family="Verdana"
    text-anchor="middle"
    font-size="12px"
    id="g3231">
    <text
        x="101"
        y="35"
        id="text3233">Actor System</text>
</g>
</svg>
