<?xml version="1.0" standalone="yes"?>
<svg version="1.1" xmlns="http://www.w3.org/2000/svg" xmlns:xlink="http://www.w3.org/1999/xlink" xmlns:ev="http://www.w3.org/2001/xml-events" width="270" height="270">
<path style="fill:#ffffff; stroke:none;" d="M0 0L0 270L270 270L270 0L0 0z"/>
<path style="fill:#000000; stroke:none;" d="M10 10L10 80L80 80L80 10L10 10M110 10L110 30L120 30L120 10L110 10M130 10L130 20L140 20L140 10L130 10M150 10L150 30L180 30L180 10L170 10L170 20L160 20L160 10L150 10M190 10L190 80L260 80L260 10L190 10z"/>
<path style="fill:#ffffff; stroke:none;" d="M20 20L20 70L70 70L70 20L20 20z"/>
<path style="fill:#000000; stroke:none;" d="M90 20L90 30L100 30L100 20L90 20z"/>
<path style="fill:#ffffff; stroke:none;" d="M200 20L200 70L250 70L250 20L200 20z"/>
<path style="fill:#000000; stroke:none;" d="M30 30L30 60L60 60L60 30L30 30M130 30L130 50L140 50L140 30L130 30M210 30L210 60L240 60L240 30L210 30M90 40L90 50L100 50L100 60L90 60L90 80L100 80L100 90L70 90L70 100L60 100L60 90L10 90L10 120L20 120L20 130L10 130L10 180L20 180L20 150L40 150L40 170L30 170L30 180L40 180L40 170L50 170L50 150L60 150L60 180L80 180L80 170L70 170L70 160L80 160L80 150L60 150L60 140L90 140L90 170L120 170L120 180L90 180L90 200L100 200L100 210L90 210L90 260L100 260L100 250L110 250L110 260L130 260L130 240L140 240L140 230L110 230L110 200L120 200L120 180L130 180L130 190L140 190L140 200L130 200L130 220L140 220L140 210L150 210L150 220L180 220L180 230L160 230L160 240L150 240L150 250L160 250L160 240L170 240L170 250L190 250L190 260L260 260L260 190L240 190L240 170L230 170L230 140L240 140L240 160L250 160L250 170L260 170L260 150L250 150L250 140L260 140L260 110L250 110L250 90L240 90L240 120L250 120L250 130L230 130L230 140L220 140L220 120L230 120L230 110L220 110L220 120L210 120L210 90L200 90L200 110L190 110L190 90L180 90L180 100L170 100L170 80L180 80L180 40L150 40L150 50L160 50L160 60L150 60L150 90L140 90L140 100L130 100L130 80L140 80L140 60L120 60L120 70L110 70L110 50L120 50L120 40L90 40z"/>
<path style="fill:#ffffff; stroke:none;" d="M100 70L100 80L110 80L110 70L100 70M120 70L120 80L130 80L130 70L120 70M160 70L160 80L170 80L170 70L160 70M110 90L110 100L70 100L70 110L80 110L80 120L70 120L70 130L80 130L80 120L90 120L90 110L100 110L100 130L120 130L120 140L110 140L110 160L120 160L120 150L140 150L140 140L150 140L150 160L130 160L130 180L150 180L150 190L160 190L160 200L150 200L150 210L160 210L160 200L170 200L170 190L160 190L160 180L170 180L170 160L160 160L160 150L190 150L190 160L180 160L180 170L220 170L220 180L230 180L230 170L220 170L220 160L210 160L210 150L220 150L220 140L210 140L210 120L200 120L200 140L190 140L190 120L170 120L170 130L180 130L180 140L150 140L150 130L160 130L160 110L170 110L170 100L150 100L150 120L140 120L140 110L130 110L130 100L120 100L120 90L110 90z"/>
<path style="fill:#000000; stroke:none;" d="M220 90L220 100L230 100L230 90L220 90z"/>
<path style="fill:#ffffff; stroke:none;" d="M20 100L20 110L30 110L30 120L40 120L40 130L50 130L50 120L60 120L60 110L50 110L50 100L20 100z"/>
<path style="fill:#000000; stroke:none;" d="M110 100L110 120L120 120L120 100L110 100M40 110L40 120L50 120L50 110L40 110M130 120L130 140L140 140L140 120L130 120z"/>
<path style="fill:#ffffff; stroke:none;" d="M20 130L20 140L30 140L30 130L20 130z"/>
<path style="fill:#000000; stroke:none;" d="M200 140L200 150L210 150L210 140L200 140M150 160L150 170L160 170L160 160L150 160z"/>
<path style="fill:#ffffff; stroke:none;" d="M180 180L180 210L210 210L210 180L180 180z"/>
<path style="fill:#000000; stroke:none;" d="M10 190L10 260L80 260L80 190L10 190M190 190L190 200L200 200L200 190L190 190z"/>
<path style="fill:#ffffff; stroke:none;" d="M20 200L20 250L70 250L70 200L20 200M230 200L230 210L240 210L240 200L230 200z"/>
<path style="fill:#000000; stroke:none;" d="M30 210L30 240L60 240L60 210L30 210z"/>
<path style="fill:#ffffff; stroke:none;" d="M200 220L200 230L180 230L180 240L190 240L190 250L200 250L200 230L210 230L210 240L230 240L230 250L250 250L250 230L240 230L240 240L230 240L230 220L220 220L220 230L210 230L210 220L200 220M100 230L100 240L110 240L110 250L120 250L120 240L110 240L110 230L100 230z"/>
</svg>
