<?xml version="1.0" encoding="UTF-8" standalone="no"?>
<!-- Created with Inkscape (http://www.inkscape.org/) -->

<svg
   xmlns:dc="http://purl.org/dc/elements/1.1/"
   xmlns:cc="http://creativecommons.org/ns#"
   xmlns:rdf="http://www.w3.org/1999/02/22-rdf-syntax-ns#"
   xmlns:svg="http://www.w3.org/2000/svg"
   xmlns="http://www.w3.org/2000/svg"
   version="1.1"
   width="693.91248"
   height="111.5125"
   id="svg3023"
   xml:space="preserve"><metadata
     id="metadata3029"><rdf:RDF><cc:Work
         rdf:about=""><dc:format>image/svg+xml</dc:format><dc:type
           rdf:resource="http://purl.org/dc/dcmitype/StillImage" /><dc:title></dc:title></cc:Work></rdf:RDF></metadata><defs
     id="defs3027" /><g
     transform="matrix(1.25,0,0,-1.25,0,111.5125)"
     id="g3031"><g
       transform="scale(0.1,0.1)"
       id="g3033"><path
         d="m 285.598,497.973 c 0,-144.418 38.433,-183.989 102.488,-183.989 64.043,0 102.48,39.571 102.48,183.989 0,144.425 -38.437,184.023 -102.48,184.023 -64.055,0 -102.488,-39.598 -102.488,-184.023"
         id="path3035"
         style="fill:#e31837;fill-opacity:1;fill-rule:nonzero;stroke:none" /><path
         d="m 1494.75,171.914 -150.71,0 0,232.813 c 0,18.945 -0.98,37.828 -2.91,56.636 -1.93,18.797 -5.25,32.676 -9.96,41.59 -5.54,10.305 -13.64,17.813 -24.29,22.57 -10.64,4.747 -25.51,7.11 -44.6,7.11 -13.57,0 -27.33,-2.238 -41.29,-6.692 -13.98,-4.441 -29.13,-11.55 -45.45,-21.296 l 0,-332.731 -150.7,0 0,649.066 150.7,0 0,-232.011 c 26.6,20.871 52.17,36.875 76.69,48 24.51,11.121 51.74,16.699 81.67,16.699 50.43,0 89.83,-14.758 118.24,-44.258 28.4,-29.492 42.61,-73.605 42.61,-132.324 l 0,-305.172"
         id="path3037"
         style="fill:#2b59ae;fill-opacity:1;fill-rule:nonzero;stroke:none" /><path
         d="m 1927.07,292.129 c 9.71,11.953 17.01,26.367 21.88,43.203 4.85,16.836 7.3,40.117 7.3,69.883 0,27.539 -2.5,50.629 -7.51,69.281 -5.01,18.633 -11.94,33.516 -20.84,44.641 -8.91,11.406 -19.6,19.472 -32.09,24.199 -12.5,4.726 -25.99,7.098 -40.43,7.098 -14.45,0 -27.3,-1.942 -38.56,-5.84 -11.25,-3.895 -22.01,-11.68 -32.28,-23.36 -9.18,-10.859 -16.48,-25.75 -21.89,-44.656 -5.42,-18.918 -8.13,-42.711 -8.13,-71.363 0,-25.606 2.36,-47.793 7.09,-66.543 4.71,-18.789 11.66,-33.887 20.84,-45.274 8.88,-10.878 19.5,-18.789 31.87,-23.808 12.36,-5 26.48,-7.5 42.31,-7.5 13.6,0 26.6,2.285 38.98,6.875 12.36,4.609 22.86,12.324 31.46,23.164 z m 184.62,113.926 c 0,-76.973 -22.43,-137.598 -67.3,-181.914 -44.87,-44.317 -107.87,-66.465 -189.01,-66.465 -81.13,0 -144.13,22.148 -188.99,66.465 -44.88,44.316 -67.31,104.941 -67.31,181.914 0,77.504 22.56,138.355 67.71,182.535 45.14,44.16 108.01,66.269 188.59,66.269 81.7,0 144.83,-22.226 189.41,-66.691 44.6,-44.461 66.9,-105.164 66.9,-182.113"
         id="path3039"
         style="fill:#2b59ae;fill-opacity:1;fill-rule:nonzero;stroke:none" /><path
         d="m 2220.03,171.914 150.699,0 0,649.066 -150.699,0 0,-649.066 z"
         id="path3041"
         style="fill:#2b59ae;fill-opacity:1;fill-rule:nonzero;stroke:none" /><path
         d="m 2662.75,171.914 -150.71,0 0,468.707 150.71,0 0,-468.707 z m 4.75,535.16 -160.21,0 0,113.906 160.21,0 0,-113.906"
         id="path3043"
         style="fill:#2b59ae;fill-opacity:1;fill-rule:nonzero;stroke:none" /><path
         d="m 3211.06,319.668 c 0,-48.574 -21.72,-87.715 -65.16,-117.422 -43.46,-29.726 -102.92,-44.57 -178.37,-44.57 -41.79,0 -79.65,3.906 -113.62,11.699 -34,7.793 -61.27,16.445 -81.89,25.918 l 0,123.75 13.81,0 c 7.53,-5.352 16.27,-11.191 26.16,-17.539 9.92,-6.348 23.94,-13.184 42.1,-20.508 15.62,-6.484 33.36,-12.051 53.17,-16.68 19.83,-4.648 41.03,-6.972 63.66,-6.972 29.59,0 51.48,3.34 65.72,10.039 14.24,6.679 21.36,16.582 21.36,29.668 0,11.445 -4.19,19.746 -12.56,24.902 -8.37,5.156 -24.27,10.137 -47.69,14.883 -11.14,2.5 -26.28,5.215 -45.38,8.144 -19.1,2.93 -36.44,6.485 -52.06,10.665 -42.67,11.171 -74.33,28.535 -94.97,52.128 -20.62,23.575 -30.95,52.946 -30.95,88.102 0,45.195 21.35,82.801 64.07,112.801 42.71,29.992 101.07,44.992 175.11,44.992 35.05,0 68.64,-3.555 100.81,-10.637 32.13,-7.109 57.24,-14.687 75.34,-22.734 l 0,-118.516 -12.98,0 c -22.31,15.43 -47.75,28 -76.31,37.676 -28.6,9.68 -57.53,14.543 -86.8,14.543 -24.26,0 -44.7,-3.43 -61.28,-10.254 -16.6,-6.848 -24.87,-16.523 -24.87,-29.035 0,-11.16 3.76,-19.676 11.29,-25.535 7.53,-5.86 25.23,-11.719 53.11,-17.578 15.34,-3.078 31.85,-6.086 49.56,-9.004 17.71,-2.942 35.49,-6.641 53.35,-11.094 39.59,-10.324 68.87,-26.598 87.84,-48.766 18.95,-22.187 28.43,-49.882 28.43,-83.066"
         id="path3045"
         style="fill:#2b59ae;fill-opacity:1;fill-rule:nonzero;stroke:none" /><path
         d="m 3609.93,175.742 c -16.11,-4.14 -33.24,-7.422 -51.3,-9.785 -18.07,-2.363 -40.17,-3.555 -66.32,-3.555 -58.4,0 -101.84,11.836 -130.34,35.508 -28.5,23.652 -42.76,64.141 -42.76,121.485 l 0,219.175 -61.7,0 0,102.051 61.7,0 0,134.082 150.72,0 0,-134.082 140,0 0,-102.051 -140,0 0,-166.304 c 0,-16.426 0.11,-30.782 0.41,-43.028 0.26,-12.265 2.49,-23.261 6.65,-33.008 3.86,-9.765 10.73,-17.5 20.56,-23.203 9.81,-5.703 24.17,-8.574 43.01,-8.574 7.75,0 17.91,1.68 30.52,5.039 12.6,3.34 21.39,6.406 26.41,9.219 l 12.44,0 0,-102.969"
         id="path3047"
         style="fill:#2b59ae;fill-opacity:1;fill-rule:nonzero;stroke:none" /><path
         d="m 3850.85,171.914 -150.72,0 0,468.707 150.72,0 0,-468.707 z m 4.74,535.16 -160.19,0 0,113.906 160.19,0 0,-113.906"
         id="path3049"
         style="fill:#2b59ae;fill-opacity:1;fill-rule:nonzero;stroke:none" /><path
         d="m 4236.15,158.848 c -40.91,0 -78.27,4.882 -112.07,14.629 -33.83,9.765 -63.25,24.785 -88.28,45.136 -24.77,20.332 -43.97,45.977 -57.62,76.914 -13.64,30.918 -20.44,67.129 -20.44,108.653 0,43.726 7.31,81.468 21.92,113.238 14.61,31.758 35,58.086 61.14,79.004 25.32,19.766 54.56,34.258 87.66,43.457 33.11,9.187 67.48,13.789 103.09,13.789 32.01,0 61.52,-3.477 88.5,-10.461 27,-6.961 52.18,-16.035 75.57,-27.195 l 0,-128.469 -21.28,0 c -5.86,5.078 -12.88,11.016 -21.09,17.805 -8.19,6.785 -18.28,13.418 -30.24,19.91 -11.39,6.211 -23.91,11.367 -37.55,15.469 -13.62,4.093 -29.46,6.152 -47.54,6.152 -40.05,0 -70.87,-12.813 -92.41,-38.418 -21.55,-25.606 -32.32,-60.371 -32.32,-104.281 0,-45.371 11.06,-79.785 33.16,-103.282 22.08,-23.515 53.46,-35.253 94.07,-35.253 18.92,0 35.93,2.187 51.09,6.582 15.18,4.375 27.76,9.55 37.78,15.488 9.45,5.664 17.8,11.582 25.03,17.812 7.23,6.231 13.9,12.325 20.02,18.262 l 21.28,0 0,-128.516 c -23.68,-11.171 -48.36,-20.019 -74.1,-26.582 -25.74,-6.562 -54.2,-9.843 -85.37,-9.843"
         id="path3051"
         style="fill:#e31837;fill-opacity:1;fill-rule:nonzero;stroke:none" /><path
         d="m 4788.41,292.129 c 9.72,11.953 17.03,26.367 21.87,43.203 4.87,16.836 7.31,40.117 7.31,69.883 0,27.539 -2.5,50.629 -7.51,69.281 -4.99,18.633 -11.93,33.516 -20.83,44.641 -8.9,11.406 -19.61,19.472 -32.09,24.199 -12.51,4.726 -25.98,7.098 -40.42,7.098 -14.46,0 -27.33,-1.942 -38.58,-5.84 -11.26,-3.895 -22.01,-11.68 -32.28,-23.36 -9.16,-10.859 -16.49,-25.75 -21.9,-44.656 -5.42,-18.918 -8.12,-42.711 -8.12,-71.363 0,-25.606 2.37,-47.793 7.08,-66.543 4.72,-18.789 11.67,-33.887 20.86,-45.274 8.89,-10.878 19.49,-18.789 31.86,-23.808 12.36,-5 26.48,-7.5 42.31,-7.5 13.61,0 26.61,2.285 38.98,6.875 12.38,4.609 22.86,12.324 31.46,23.164 z m 184.64,113.926 c 0,-76.973 -22.44,-137.598 -67.32,-181.914 -44.87,-44.317 -107.88,-66.465 -188.99,-66.465 -81.14,0 -144.15,22.148 -189.03,66.465 -44.85,44.316 -67.28,104.941 -67.28,181.914 0,77.504 22.57,138.355 67.7,182.535 45.15,44.16 108.02,66.269 188.61,66.269 81.69,0 144.81,-22.226 189.4,-66.691 44.59,-44.461 66.91,-105.164 66.91,-182.113"
         id="path3053"
         style="fill:#e31837;fill-opacity:1;fill-rule:nonzero;stroke:none" /><path
         d="m 5551.27,171.914 -150.7,0 0,232.813 c 0,18.945 -0.99,37.828 -2.9,56.636 -1.95,18.797 -5.26,32.676 -9.96,41.59 -5.55,10.305 -13.66,17.813 -24.3,22.57 -10.64,4.747 -25.51,7.11 -44.61,7.11 -13.57,0 -27.32,-2.238 -41.3,-6.692 -13.96,-4.441 -29.1,-11.55 -45.43,-21.296 l 0,-332.731 -150.7,0 0,468.707 150.7,0 0,-51.652 c 26.59,20.871 52.16,36.875 76.69,48 24.5,11.121 51.75,16.699 81.67,16.699 50.43,0 89.82,-14.758 118.22,-44.258 28.4,-29.492 42.62,-73.605 42.62,-132.324 l 0,-305.172"
         id="path3055"
         style="fill:#e31837;fill-opacity:1;fill-rule:nonzero;stroke:none" /><path
         d="m 669.578,679.859 c 31.367,-49.992 49.238,-111.379 49.238,-181.886 0,-196.821 -132.761,-326.059 -330.73,-326.059 -194.5,0 -330.7618,119.941 -330.7618,326.059 0,189.855 128.1058,326.105 330.7618,326.105 17.246,0 34.094,-1.086 50.488,-3.164 l 381.77,0 0,71.199 -820.344,0 0,-784.73 820.344,0 0,572.476 -150.766,0"
         id="path3057"
         style="fill:#e31837;fill-opacity:1;fill-rule:nonzero;stroke:none" /></g></g></svg>