<svg xmlns="http://www.w3.org/2000/svg" xmlns:xlink="http://www.w3.org/1999/xlink" width="251px" height="85px" version="1.1"><defs/><g transform="translate(0.5,0.5)"><ellipse cx="24" cy="9" rx="7.5" ry="7.5" fill="#ffffff" stroke="#989292" stroke-width="3" pointer-events="none"/><path d="M 24 17 L 24 42 M 24 22 L 9 22 M 24 22 L 39 22 M 24 42 L 9 62 M 24 42 L 39 62" fill="none" stroke="#989292" stroke-width="3" stroke-miterlimit="10" pointer-events="none"/><g fill="#989292" font-family="Verdana" font-weight="bold" text-anchor="middle" font-size="12px"><text x="24" y="80">Sender</text></g><path d="M 96 22 L 126 22 L 126 42 L 96 42 Z" fill="#ffffff" stroke="#989292" stroke-width="3" stroke-miterlimit="10" pointer-events="none"/><path d="M 96 22 L 111 32 L 126 22" fill="none" stroke="#989292" stroke-width="3" stroke-miterlimit="10" pointer-events="none"/><path d="M 39 32 L 89 32" fill="none" stroke="#989292" stroke-width="2" stroke-miterlimit="10" pointer-events="none"/><path d="M 139 32 L 180 32" fill="none" stroke="#989292" stroke-width="2" stroke-miterlimit="10" pointer-events="none"/><path d="M 186 32 L 178 36 L 180 32 L 178 28 Z" fill="#989292" stroke="#989292" stroke-width="2" stroke-miterlimit="10" pointer-events="none"/><ellipse cx="212" cy="9" rx="7.5" ry="7.5" fill="#ffffff" stroke="#989292" stroke-width="3" pointer-events="none"/><path d="M 212 17 L 212 42 M 212 22 L 197 22 M 212 22 L 227 22 M 212 42 L 197 62 M 212 42 L 227 62" fill="none" stroke="#989292" stroke-width="3" stroke-miterlimit="10" pointer-events="none"/><g fill="#989292" font-family="Verdana" font-weight="bold" text-anchor="middle" font-size="12px"><text x="212" y="80">Empfänger</text></g><rect x="156" y="26" width="13" height="10" fill="none" stroke="none" pointer-events="none"/><g fill="#DE0027" font-family="Verdana" font-weight="bold" text-anchor="middle" font-size="14px"><text x="162" y="36">x</text></g><path d="M 169 31 L 169 31" fill="none" stroke="#989292" stroke-width="2" stroke-miterlimit="10" pointer-events="none"/><path d="M 169 31 L 169 31 L 169 31 L 169 31 Z" fill="#989292" stroke="#989292" stroke-width="2" stroke-miterlimit="10" pointer-events="none"/><path d="M 169 31 L 169 31 L 169 31 L 169 31 Z" fill="#989292" stroke="#989292" stroke-width="2" stroke-miterlimit="10" pointer-events="none"/><path d="M 162 36 L 162 36" fill="none" stroke="#989292" stroke-width="2" stroke-miterlimit="10" pointer-events="none"/><path d="M 162 36 L 162 36 L 162 36 L 162 36 Z" fill="#989292" stroke="#989292" stroke-width="2" stroke-miterlimit="10" pointer-events="none"/><path d="M 162 36 L 162 36 L 162 36 L 162 36 Z" fill="#989292" stroke="#989292" stroke-width="2" stroke-miterlimit="10" pointer-events="none"/><rect x="156" y="8" width="13" height="24" fill="none" stroke="none" pointer-events="none"/><g fill="#DE0027" font-family="Verdana" font-weight="bold" text-anchor="middle" font-size="14px"><text x="162" y="25">?</text></g></g></svg>