<?xml version="1.0" encoding="utf-8"?>
<!-- Generator: Adobe Illustrator 21.1.0, SVG Export Plug-In . SVG Version: 6.00 Build 0)  -->
<svg version="1.1" id="Ebene_1" xmlns="http://www.w3.org/2000/svg" xmlns:xlink="http://www.w3.org/1999/xlink" x="0px" y="0px"
	 viewBox="0 0 170 70" style="enable-background:new 0 0 170 70;" xml:space="preserve">
<style type="text/css">
	.st0{fill:#172983;}
</style>
<g id="Ebene_x0020_1">
	<path class="st0" d="M153.5,6.6L153.5,6.6c0.3,0.1,0.4,0.3,0.4,0.6l-0.2,1.4l0.9,0.4l0.2-1.8c0-0.2,0-0.4-0.1-0.5
		c0.4,0,0.8-0.2,1-0.6c0.2-0.4,0.2-0.7,0-1c-0.1-0.2-0.4-0.5-0.7-0.6L153.7,4l-1.8,3.8l0.8,0.4L153.5,6.6L153.5,6.6z M170,24.5v-1.9
		c-0.1-2.9-0.7-5.6-1.8-8.3c-1.2-2.8-2.9-5.4-5.1-7.6c-2.2-2.2-4.7-3.9-7.5-5.1c-2.9-1.2-6-1.9-9.2-1.9c-3.2,0-6.3,0.6-9.2,1.9
		c-2.8,1.2-5.3,2.9-7.5,5.1c-2.2,2.2-3.9,4.7-5.1,7.6c-1.2,2.9-1.8,6-1.8,9.3c0,3.2,0.6,6.3,1.8,9.3c1.2,2.8,2.9,5.4,5.1,7.5
		c2.2,2.2,4.7,3.9,7.5,5.1c2.9,1.2,6,1.9,9.2,1.9c3.2,0,6.3-0.6,9.2-1.9c2.8-1.2,5.4-2.9,7.5-5.1c2.2-2.2,3.9-4.7,5.1-7.5
		C169.4,30.2,169.9,27.4,170,24.5L170,24.5z M154.2,5l0.2,0.1c0.4,0.2,0.5,0.3,0.3,0.7c-0.1,0.2-0.2,0.2-0.3,0.3c-0.1,0-0.3,0-0.4,0
		l-0.2-0.1L154.2,5z M166.5,18.6c0.1,0.4,0.1,0.8,0.1,1v0l-0.8,0.2l0-0.2c0.1-0.3,0.1-0.6,0-0.9c-0.2-0.6-0.8-1-1.6-0.7
		c-0.9,0.2-1.2,0.8-1.1,1.4c0,0.1,0.1,0.2,0.1,0.3l0.9-0.2L164,19l0.7-0.2l0.4,1.4l-2.2,0.6l0,0c-0.1-0.1-0.3-0.4-0.5-1
		c-0.2-0.6-0.1-1.2,0.2-1.6c0.3-0.4,0.7-0.8,1.4-0.9C165.2,16.8,166.2,17.4,166.5,18.6L166.5,18.6z M160.2,37.7l0.5,0.6l-1.7,1.6
		l-2.8-3.1l1.7-1.6l0.5,0.6l-1,1l0.6,0.6l1-0.9l0.5,0.6l-1,0.9l0.7,0.7L160.2,37.7L160.2,37.7z M149.1,7.1l-0.9-0.2l0.8-4.1l0.9,0.2
		l-0.3,1.6l1,0.2l0.3-1.6l0.9,0.2L151,7.5l-0.9-0.2l0.4-1.7l-1-0.2L149.1,7.1z M162.9,16.1c-0.3,0.2-0.6,0.2-0.9,0.2
		c-0.2,0-0.3,0-0.4-0.1c-0.3-0.1-0.6-0.4-0.8-0.7c-0.2-0.4-0.2-0.8-0.2-1.1c0.1-0.4,0.4-0.7,0.8-1l2.4-1.3l0.4,0.8l-2.4,1.2
		c-0.3,0.2-0.4,0.3-0.5,0.4c-0.1,0.1-0.1,0.2,0,0.4c0.2,0.3,0.4,0.4,1,0.1l2.4-1.2l0.4,0.8L162.9,16.1z M52.7,29.9H37.2v39.7h15.5
		c11.7,0,20.4-7,20.4-19.8C73.1,36.8,64.4,29.9,52.7,29.9L52.7,29.9z M52.3,61H47V38.4h5.3c6.4,0,10.8,4,10.8,11.4
		C63.1,56.9,58.7,61,52.3,61L52.3,61z M25.9,48.8c3.5-1.5,5.7-4.4,5.7-8.3c0-7.3-5.2-10.7-14-10.7H0v39.7h20.2
		c9.3,0,14.5-4.1,14.5-10.7C34.7,53.2,31.4,50,25.9,48.8L25.9,48.8L25.9,48.8z M9.9,37.7h6.3c3.5,0,5.3,1.1,5.3,3.9
		c0,2.7-2,3.8-5.4,3.8H9.9V37.7z M18.8,61.7h-9v-8.4h8.5c3.8,0,5.9,1.4,5.9,4.3C24.3,60.3,22.5,61.7,18.8,61.7L18.8,61.7L18.8,61.7z
		 M167.2,32.4c-1.1,2.7-2.8,5.2-4.8,7.3s-4.5,3.7-7.2,4.9c-2.8,1.2-5.8,1.8-8.9,1.8c-3,0-6-0.6-8.8-1.8c-2.7-1.2-5.2-2.8-7.2-4.9
		c-2.1-2.1-3.7-4.6-4.9-7.3c-1.2-2.8-1.8-5.8-1.8-8.9c0-3.1,0.6-6,1.8-8.9c1.2-2.7,2.8-5.2,4.9-7.3c2-2,4.5-3.7,7.2-4.9
		c2.8-1.2,5.8-1.8,8.8-1.8s6,0.6,8.9,1.8c2.7,1.2,5.1,2.8,7.2,4.9c2,2.1,3.7,4.6,4.8,7.3c1.2,2.8,1.8,5.8,1.8,8.9
		C169,26.6,168.4,29.6,167.2,32.4L167.2,32.4z M158.4,7.6l-1.2-0.9l0.4-0.6l2,1.6l-0.4,0.6l-2.8,1.3l1.2,0.9l-0.4,0.6l-2.1-1.6
		l0.4-0.6L158.4,7.6z M97.3,49.7C97.2,49.8,113,69.6,113,69.6h-11.9L85.8,50.5v19.1h-9.8V29.9h9.8v19l15.3-19h11.8
		C112.9,29.9,97.2,49.6,97.3,49.7L97.3,49.7z M158.1,11.8l3.1-2.8l1.5,1.7l-0.6,0.5l-0.9-1l-0.7,0.6l0.9,1l-0.6,0.5l-0.9-1l-0.8,0.7
		l1,1.1l-0.6,0.5L158.1,11.8L158.1,11.8z M136.5,37.1l-0.6,0.6l-0.1-0.2c-0.1-0.3-0.3-0.5-0.5-0.8c-0.2-0.2-0.6-0.3-0.9-0.2
		c-0.3,0-0.6,0.2-0.9,0.6c-0.6,0.7-0.6,1.3,0,1.8c0.1,0.1,0.2,0.2,0.3,0.2l0.6-0.7l-0.5-0.4l0.5-0.6l1.1,1l-1.4,1.7h0
		c-0.2,0-0.5-0.2-1-0.6c-0.5-0.4-0.8-0.9-0.8-1.5c0-0.5,0.2-1,0.6-1.5c0.4-0.5,0.9-0.8,1.4-0.9c0.5,0,1.1,0.1,1.6,0.5
		C136.1,36.5,136.4,36.9,136.5,37.1L136.5,37.1z M144.2,40.1l0.8,0.2l-1.7,3.9l-1-0.2l0.1-3l-1.2,2.8l-1-0.2l0-4.2l0.8,0.2l-0.1,2.8
		l1.1-2.5l1,0.2l0,2.8L144.2,40.1z M148.3,43.5l0,0.8l-2.3,0.1l-0.1-4.2l2.2-0.1l0,0.8l-1.4,0l0,0.9l1.3-0.1l0,0.8l-1.3,0l0,1
		L148.3,43.5L148.3,43.5z M133,13.6l-0.6-0.8l0.8-1l0.9,0.4l0.6-0.8l-4.1-1.6l-0.6,0.8l2.4,3.7L133,13.6L133,13.6z M131.1,10.9
		l1.4,0.6l-0.5,0.7L131.1,10.9z M128.2,19l2.5-1l-0.3,1.1l-1.9,0.6l1.7,0.4l-0.2,0.9l-4-1l0.2-0.9l1.5,0.4l-1.2-1.4l0.2-1L128.2,19
		L128.2,19z M137.8,37.8l2,1.1l-0.4,0.7l-1.2-0.6l-0.4,0.8l1.2,0.6l-0.4,0.7l-1.2-0.6l-0.5,0.9l1.3,0.7l-0.4,0.7l-2-1.1L137.8,37.8
		L137.8,37.8z M129.9,14.6c0-0.4-0.2-0.8-0.6-1c-0.3-0.2-0.6-0.2-1-0.1c-0.2,0.1-0.5,0.4-0.6,0.7l-0.6,1.2l3.8,1.8l0.4-0.8l-1.6-0.8
		l0-0.1c0.1-0.2,0.3-0.3,0.5-0.3l1.4,0.2l0.4-0.9l-1.7-0.2C130.2,14.4,130,14.5,129.9,14.6L129.9,14.6L129.9,14.6z M129.2,15.2
		l-0.1,0.2l-0.9-0.4l0.1-0.2c0.2-0.4,0.4-0.4,0.7-0.3C129.4,14.7,129.3,15,129.2,15.2L129.2,15.2z M145,5.9l1.2,0l0.3,1h1L146,2.7
		l-0.9,0L143.8,7l0.9,0L145,5.9z M145.5,3.7l0.4,1.5l-0.8,0L145.5,3.7z M146.4,10.5L146.4,10.5c-0.9,0-1.6,0-1.6,0
		c-1.4,0-2.6,0-4,0.2c-1.2,0.2-2.1,0.6-3,1.4c-0.8,0.8-1.5,1.8-2,2.7c-0.3,0.5-0.6,1.1-0.8,1.7c-0.2,0.3-0.6,1.4-0.7,1.6
		c-0.2,0.3-1.3,0.8-1.3,1.8v11.5c0,0.5-0.1,1.3,0.5,1.5c0.5,0.2,1.1,0.1,1.6,0.1c0.6,0,1,0,1.5-0.1c0.6-0.2,0.5-0.8,0.5-1.3v-2
		c2.8,0.2,6,0.3,9.3,0.3h0c0,0,0,0,0,0l0,0c3.2,0,6.5-0.1,9.3-0.3v2c0,0.5-0.1,1.1,0.5,1.3c0.5,0.2,1,0.1,1.5,0.1s1.2,0,1.6-0.1
		c0.6-0.2,0.5-1,0.5-1.5V20c-0.1-1-1.2-1.5-1.3-1.8c-0.1-0.2-0.6-1.3-0.7-1.6c-0.3-0.6-0.6-1.2-0.9-1.7c-0.6-1-1.2-2-2-2.7
		c-0.8-0.8-1.8-1.2-3-1.4c-1.3-0.2-2.6-0.2-3.9-0.2C148,10.5,147.3,10.5,146.4,10.5C146.4,10.5,146.4,10.5,146.4,10.5L146.4,10.5z
		 M134.9,23c0-0.2,0.2-0.2,0.4-0.2c0.6,0,2.2,0.1,2.5,0.1c0.3,0,0.6,0,1,0c0.4,0,0.7,0.3,0.8,0.7c0.2,0.4,0.2,1.1-0.2,1.5
		c-0.3,0.3-1,0.3-1.5,0.3c-0.3,0-0.6,0-0.9,0c-0.8,0-1.1-0.3-1.6-0.7C134.9,24.2,134.8,23.6,134.9,23L134.9,23L134.9,23z
		 M156.8,27.9c-1.4,0.2-2.6,0.3-4.3,0.4c-2.5,0.1-5.4,0.2-6.1,0.2s-3.6,0-6.1-0.2c-1.7-0.1-2.8-0.2-4.3-0.4c-1-0.1-1.3-0.8,0-0.6
		c0.9,0.1,2,0.2,2.8,0.3c2.7,0.2,6.7,0.3,7.6,0.3h0c0,0,0,0,0,0l0,0c0.9,0,4.9-0.1,7.6-0.3c0.8-0.1,1.9-0.2,2.8-0.3
		C158.1,27.1,157.8,27.8,156.8,27.9L156.8,27.9z M146.4,23.9L146.4,23.9L146.4,23.9c-1.2,0-1.8,0-2.9-0.1c-1,0-2.6-0.1-2.6-0.1
		c-0.1,0-0.2,0-0.3-0.1c0,0-0.1-0.1-0.1-0.2c0-0.2,0.1-0.3,0.3-0.3c0,0,1.6,0.1,2.6,0.1c1.1,0.1,1.8,0.1,2.9,0.1c0,0,0,0,0,0
		c0,0,0,0,0,0c1.1,0,1.7,0,2.9-0.1c1,0,2.6-0.1,2.6-0.1c0.2,0,0.3,0.1,0.3,0.3c0,0.1,0,0.2-0.1,0.2c0,0-0.1,0.1-0.2,0.1
		c0,0-1.6,0.1-2.6,0.1C148.2,23.9,147.5,23.9,146.4,23.9L146.4,23.9C146.4,23.9,146.4,23.9,146.4,23.9L146.4,23.9z M140.8,24.8
		c0,0,1,0,1.9,0.1c0.3,0,0.5,0,0.8,0c1.2,0,1.8,0.1,2.9,0.1c0,0,0,0,0,0c0,0,0,0,0,0c1.2,0,1.8,0,2.9-0.1c0.2,0,0.5,0,0.7,0
		c1,0,1.9-0.1,1.9-0.1c0.1,0,0.2,0,0.2,0.1c0,0.1,0.1,0.1,0.1,0.2c0,0.2-0.1,0.3-0.4,0.3c0,0-1.6,0.1-2.6,0.1
		c-1.1,0-1.8,0.1-2.9,0.1l0,0c0,0,0,0,0,0h0l0,0c-1.2,0-1.8,0-2.9-0.1c-1,0-2.6-0.1-2.6-0.1c-0.2,0-0.3-0.1-0.3-0.3
		c0-0.1,0-0.1,0-0.2C140.6,24.9,140.7,24.8,140.8,24.8L140.8,24.8z M157.9,23c0,0.6,0,1.2-0.6,1.6c-0.4,0.4-0.8,0.6-1.6,0.7
		c-0.3,0-0.6,0-0.9,0c-0.4,0-1.2,0-1.4-0.3c-0.4-0.4-0.3-1-0.2-1.5c0.2-0.4,0.5-0.6,0.9-0.7c0.3,0,0.7,0,1,0c0.2,0,1.9-0.1,2.5-0.1
		C157.7,22.8,157.9,22.8,157.9,23L157.9,23L157.9,23z M150.2,11.5c0.6,0,1.3,0,1.9,0.2c1.2,0.3,2,0.9,2.9,1.8
		c0.8,0.8,1.3,1.8,1.8,2.8c0.3,0.6,0.6,1.2,0.8,1.9c0,0-2.1-0.3-2.6-0.3c-0.8-0.1-1.8-0.2-2.6-0.3c-0.8-0.1-4.2-0.2-5-0.2
		c-0.1,0-0.5,0-1,0c-0.5,0-0.9,0-1,0c-0.8,0-4.2,0.2-5,0.2c-0.9,0.1-1.8,0.2-2.6,0.3c-0.5,0-2.6,0.3-2.6,0.3
		c0.2-0.7,0.5-1.3,0.8-1.9c0.5-1,1-2,1.8-2.8c0.8-0.9,1.8-1.5,2.9-1.8c0.6-0.2,1.3-0.2,1.9-0.2c0.6,0,2.2,0,3.8,0
		C148,11.5,149.6,11.5,150.2,11.5L150.2,11.5z M155.8,39.6c0.2-0.2,0.3-0.6,0-1.1c-0.4-0.6-0.9-0.8-1.6-0.3l-1.1,0.6l2,3.7l1.2-0.6
		c0.7-0.4,1-1,0.6-1.7C156.5,39.6,156.1,39.5,155.8,39.6L155.8,39.6L155.8,39.6z M154.6,39.9l-0.4-0.9l0.2-0.1
		c0.1-0.1,0.2-0.1,0.4-0.1c0.1,0,0.2,0.1,0.3,0.2c0.1,0.2,0.1,0.5-0.2,0.7L154.6,39.9z M156,41c0,0.2-0.1,0.2-0.3,0.3l-0.3,0.2
		l-0.5-1l0.3-0.1c0.4-0.2,0.6,0,0.7,0.2C156,40.7,156.1,40.8,156,41L156,41z M151.9,41.5c0.3-0.3,0.4-0.7,0.3-1.1
		c-0.2-0.7-0.7-1-1.5-0.8l-1.3,0.3l1.1,4l0.9-0.2l-0.5-1.7h0.1c0.3-0.1,0.4,0,0.6,0.2l0.8,1.2l1-0.2l-1-1.5
		C152.1,41.6,152,41.5,151.9,41.5L151.9,41.5L151.9,41.5z M150.9,41.4l-0.2,0l-0.3-1l0.2,0c0.4-0.1,0.6,0,0.7,0.3
		C151.4,41.2,151.1,41.3,150.9,41.4L150.9,41.4z M136.2,6.2l-0.3-0.7l2.4-1.2l0.3,0.7l-0.8,0.4l1.5,3.1l-0.8,0.4l-1.5-3L136.2,6.2
		L136.2,6.2z M141.2,7.7l-1.1-4l2.1-0.6l0.2,0.7l-1.2,0.4l0.2,0.9l1.2-0.3l0.2,0.7l-1.2,0.3l0.4,1.7L141.2,7.7L141.2,7.7z
		 M135.3,11.1l-2.5-3.4l1.7-1.3l0.5,0.6l-1,0.8l0.5,0.7l1-0.7l0.5,0.6l-1,0.8l1,1.4L135.3,11.1L135.3,11.1z"/>
</g>
</svg>
