<svg id="Ebene_1" data-name="Ebene 1" xmlns="http://www.w3.org/2000/svg" viewBox="0 0 512 73.59"><defs><style>.cls-1{fill:#b0b8b9;}</style></defs><title>logo2016-silver</title><path id="holisticon" class="cls-1" d="M106.12,72.57h-12V0h12V29.15a28.14,28.14,0,0,1,7-4.23,21.38,21.38,0,0,1,8.51-1.68A19.43,19.43,0,0,1,129,24.51a13.65,13.65,0,0,1,8.15,8.82,22.19,22.19,0,0,1,1,6.73V72.57h-12V42.4q0-5.2-2.09-7.49t-6.17-2.29a14.15,14.15,0,0,0-6,1.43,21.11,21.11,0,0,0-5.71,4ZM197.24,48a29.3,29.3,0,0,1-1.89,10.8,22.53,22.53,0,0,1-5.25,8.05,23.11,23.11,0,0,1-7.85,5,26.64,26.64,0,0,1-9.68,1.73A27.69,27.69,0,0,1,162.94,72a22,22,0,0,1-7.7-4.74,21.47,21.47,0,0,1-5.1-7.7A28.1,28.1,0,0,1,148.32,49a30,30,0,0,1,1.89-11,22.45,22.45,0,0,1,5.25-8.1,23.11,23.11,0,0,1,7.85-5A26.64,26.64,0,0,1,173,23.24a28.5,28.5,0,0,1,9.63,1.58,21.08,21.08,0,0,1,7.7,4.74,22,22,0,0,1,5.1,7.75A28.7,28.7,0,0,1,197.24,48Zm-12.43.51a24.2,24.2,0,0,0-1-7.49,14.48,14.48,0,0,0-2.7-5,10.44,10.44,0,0,0-3.87-2.85,11.64,11.64,0,0,0-4.54-.92,13.23,13.23,0,0,0-4.48.76,8.92,8.92,0,0,0-3.77,2.65,14.39,14.39,0,0,0-2.65,5,25.89,25.89,0,0,0-1,7.85,22.85,22.85,0,0,0,1,7.29,15.19,15.19,0,0,0,2.7,5,10.23,10.23,0,0,0,3.87,2.9,11.64,11.64,0,0,0,4.54.92,12.63,12.63,0,0,0,4.43-.82,9.49,9.49,0,0,0,3.82-2.65,13.85,13.85,0,0,0,2.65-4.94,25,25,0,0,0,1-7.7Zm22.83,24.05V0h11.82V72.57Zm26.19,0V24.16h12V72.57Zm6-59.52a6.57,6.57,0,0,1-4.94-1.83,6.32,6.32,0,0,1-1.78-4.59A6.27,6.27,0,0,1,235,2.09,7.23,7.23,0,0,1,244.64,2a6.22,6.22,0,0,1,1.83,4.59,6.22,6.22,0,0,1-1.83,4.59A6.48,6.48,0,0,1,239.85,13ZM288.36,35a27.24,27.24,0,0,0-11.72-2.85,10.39,10.39,0,0,0-5.76,1.33,4.29,4.29,0,0,0-.36,7q1.63,1.38,6.52,2.8l3.06.92q6.52,1.94,9.84,5.3a12.09,12.09,0,0,1,3.31,8.87A13.4,13.4,0,0,1,288,69.46q-5.3,4.13-14.47,4.13-9.89,0-16.41-3.26l2.65-9A37.25,37.25,0,0,0,266,63.7a25.66,25.66,0,0,0,6.88.92q8.46,0,8.46-5.4a4,4,0,0,0-2-3.67,30.9,30.9,0,0,0-6.78-2.65l-3.16-1q-6.32-2-9.33-5.35a12.47,12.47,0,0,1-3-8.71A13.13,13.13,0,0,1,258.4,32a13.62,13.62,0,0,1,3.72-4.64,17.41,17.41,0,0,1,5.81-3,25.31,25.31,0,0,1,7.59-1.07,42.29,42.29,0,0,1,8.1.76,32.62,32.62,0,0,1,7.29,2.29Zm42.5-2H317.51V57.18q0,3.47,1.68,4.74a7,7,0,0,0,4.33,1.27,24,24,0,0,0,4.28-.41,15.56,15.56,0,0,0,3.77-1.12l1.83,8.56a33.32,33.32,0,0,1-5.25,1.58,31.44,31.44,0,0,1-7.08.76q-8.26,0-11.87-3.36t-3.62-10.09V32.92h-7.34V24.16h7.34V9.07h11.93V24.16h13.35Zm11.72,39.65V24.16h12V72.57Zm6-59.52a6.57,6.57,0,0,1-4.94-1.83,6.32,6.32,0,0,1-1.78-4.59,6.27,6.27,0,0,1,1.83-4.54A7.23,7.23,0,0,1,353.39,2a6.22,6.22,0,0,1,1.83,4.59,6.22,6.22,0,0,1-1.83,4.59A6.48,6.48,0,0,1,348.6,13Zm44.54,51.57a19.7,19.7,0,0,0,5.76-.76,24.33,24.33,0,0,0,4.23-1.68l2.34,8.46a29.49,29.49,0,0,1-5.91,2,33.17,33.17,0,0,1-8.05.92A31.4,31.4,0,0,1,381.42,72a22.7,22.7,0,0,1-8.15-4.74,22.14,22.14,0,0,1-5.45-7.85,27.77,27.77,0,0,1-2-10.91,27.63,27.63,0,0,1,1.89-10.4,22.89,22.89,0,0,1,5.3-8,23.37,23.37,0,0,1,8.15-5.1,29.45,29.45,0,0,1,10.45-1.78,36.45,36.45,0,0,1,6.52.61,29.34,29.34,0,0,1,7.24,2.45l-2.55,8.56a22.56,22.56,0,0,0-4.79-2,18.11,18.11,0,0,0-5.1-.71q-6.73,0-10.8,4.13t-4.08,12A20,20,0,0,0,379.38,56a14.09,14.09,0,0,0,3.47,5.1,12.54,12.54,0,0,0,4.84,2.75,18.77,18.77,0,0,0,5.45.82ZM460.3,48a29.3,29.3,0,0,1-1.89,10.8,22.53,22.53,0,0,1-5.25,8.05,23.11,23.11,0,0,1-7.85,5,26.64,26.64,0,0,1-9.68,1.73A27.69,27.69,0,0,1,426,72a22,22,0,0,1-7.7-4.74,21.47,21.47,0,0,1-5.1-7.7A28.1,28.1,0,0,1,411.37,49a30,30,0,0,1,1.89-11,22.45,22.45,0,0,1,5.25-8.1,23.11,23.11,0,0,1,7.85-5A26.64,26.64,0,0,1,436,23.24a28.5,28.5,0,0,1,9.63,1.58,21.08,21.08,0,0,1,7.7,4.74,22,22,0,0,1,5.1,7.75A28.7,28.7,0,0,1,460.3,48Zm-12.43.51a24.2,24.2,0,0,0-1-7.49,14.48,14.48,0,0,0-2.7-5,10.44,10.44,0,0,0-3.87-2.85,11.64,11.64,0,0,0-4.54-.92,13.23,13.23,0,0,0-4.48.76,8.92,8.92,0,0,0-3.77,2.65,14.39,14.39,0,0,0-2.65,5,25.89,25.89,0,0,0-1,7.85,22.85,22.85,0,0,0,1,7.29,15.19,15.19,0,0,0,2.7,5,10.23,10.23,0,0,0,3.87,2.9,11.64,11.64,0,0,0,4.54.92,12.63,12.63,0,0,0,4.43-.82,9.49,9.49,0,0,0,3.82-2.65,13.85,13.85,0,0,0,2.65-4.94,25,25,0,0,0,1-7.7ZM480.4,72.57h-12V24.16h9.38l1.53,6.42a27.68,27.68,0,0,1,7.44-5.4,20,20,0,0,1,8.87-1.94q7.85,0,12.13,4.33T512,39.85V72.57H500V41.28A9.49,9.49,0,0,0,498,35a7.3,7.3,0,0,0-6-2.4,13,13,0,0,0-6,1.58,21.37,21.37,0,0,0-5.61,4.23Z"/><path id="Icon" class="cls-1" d="M72.84,0H36.42A36.45,36.45,0,1,0,72.84,36.48v0h0V0Zm-12,12.05V36.56A24.38,24.38,0,1,1,36.42,12.09Z"/></svg>